<mxfile host="app.diagrams.net" modified="2023-07-26T14:55:51.292Z" agent="Mozilla/5.0 (Windows NT 10.0; Win64; x64) AppleWebKit/537.36 (KHTML, like Gecko) Chrome/115.0.0.0 Safari/537.36" version="21.6.5" etag="4-XJqPhVMwI0wYVb1v-n" type="device">
  <diagram id="YwEFYmRrJtaUXXVNZDWJ" name="Página-1">
    <mxGraphModel dx="1345" dy="3073" grid="1" gridSize="10" guides="1" tooltips="1" connect="1" arrows="1" fold="1" page="1" pageScale="1" pageWidth="827" pageHeight="1169" math="0" shadow="0">
      <root>
        <mxCell id="0" />
        <mxCell id="1" parent="0" />
        <mxCell id="H7TqJ4Lv6YYYcR_X0_IR-1" value="Construa o Modelo Entidade Relacionamento considerando o seguinte cenário:&#xa;&#xa;&#xa;- uma empresa possui vários veículos&#xa;- um veículo possui marca(gm, ford, fiat), modelo(onix, fiesta, argo) e placa&#xa;- um cliente (cpf, nome) aluga um ou mais veículos" style="text;whiteSpace=wrap;" vertex="1" parent="1">
          <mxGeometry x="170" y="-2330" width="460" height="110" as="geometry" />
        </mxCell>
        <mxCell id="H7TqJ4Lv6YYYcR_X0_IR-19" value="" style="edgeStyle=orthogonalEdgeStyle;rounded=0;orthogonalLoop=1;jettySize=auto;html=1;endArrow=none;endFill=0;" edge="1" parent="1" source="H7TqJ4Lv6YYYcR_X0_IR-2" target="H7TqJ4Lv6YYYcR_X0_IR-4">
          <mxGeometry relative="1" as="geometry" />
        </mxCell>
        <mxCell id="H7TqJ4Lv6YYYcR_X0_IR-2" value="Empresa" style="rounded=0;whiteSpace=wrap;html=1;" vertex="1" parent="1">
          <mxGeometry x="330" y="-2200" width="120" height="60" as="geometry" />
        </mxCell>
        <mxCell id="H7TqJ4Lv6YYYcR_X0_IR-12" style="edgeStyle=orthogonalEdgeStyle;rounded=0;orthogonalLoop=1;jettySize=auto;html=1;entryX=0.5;entryY=0;entryDx=0;entryDy=0;endArrow=none;endFill=0;" edge="1" parent="1" source="H7TqJ4Lv6YYYcR_X0_IR-3" target="H7TqJ4Lv6YYYcR_X0_IR-10">
          <mxGeometry relative="1" as="geometry" />
        </mxCell>
        <mxCell id="H7TqJ4Lv6YYYcR_X0_IR-13" style="edgeStyle=orthogonalEdgeStyle;rounded=0;orthogonalLoop=1;jettySize=auto;html=1;entryX=0.5;entryY=0;entryDx=0;entryDy=0;exitX=0.5;exitY=1;exitDx=0;exitDy=0;endArrow=none;endFill=0;" edge="1" parent="1" source="H7TqJ4Lv6YYYcR_X0_IR-3" target="H7TqJ4Lv6YYYcR_X0_IR-9">
          <mxGeometry relative="1" as="geometry" />
        </mxCell>
        <mxCell id="H7TqJ4Lv6YYYcR_X0_IR-14" style="edgeStyle=orthogonalEdgeStyle;rounded=0;orthogonalLoop=1;jettySize=auto;html=1;entryX=0.5;entryY=0;entryDx=0;entryDy=0;exitX=0.5;exitY=1;exitDx=0;exitDy=0;endArrow=none;endFill=0;" edge="1" parent="1" source="H7TqJ4Lv6YYYcR_X0_IR-3" target="H7TqJ4Lv6YYYcR_X0_IR-11">
          <mxGeometry relative="1" as="geometry" />
        </mxCell>
        <mxCell id="H7TqJ4Lv6YYYcR_X0_IR-15" style="edgeStyle=orthogonalEdgeStyle;rounded=0;orthogonalLoop=1;jettySize=auto;html=1;entryX=0;entryY=0.5;entryDx=0;entryDy=0;endArrow=none;endFill=0;" edge="1" parent="1" source="H7TqJ4Lv6YYYcR_X0_IR-3" target="H7TqJ4Lv6YYYcR_X0_IR-5">
          <mxGeometry relative="1" as="geometry" />
        </mxCell>
        <mxCell id="H7TqJ4Lv6YYYcR_X0_IR-3" value="Veículo" style="rounded=0;whiteSpace=wrap;html=1;" vertex="1" parent="1">
          <mxGeometry x="120" y="-1940" width="120" height="60" as="geometry" />
        </mxCell>
        <mxCell id="H7TqJ4Lv6YYYcR_X0_IR-24" style="edgeStyle=orthogonalEdgeStyle;rounded=0;orthogonalLoop=1;jettySize=auto;html=1;entryX=0.5;entryY=0;entryDx=0;entryDy=0;endArrow=none;endFill=0;" edge="1" parent="1" source="H7TqJ4Lv6YYYcR_X0_IR-4" target="H7TqJ4Lv6YYYcR_X0_IR-6">
          <mxGeometry relative="1" as="geometry" />
        </mxCell>
        <mxCell id="H7TqJ4Lv6YYYcR_X0_IR-25" style="edgeStyle=orthogonalEdgeStyle;rounded=0;orthogonalLoop=1;jettySize=auto;html=1;entryX=0.5;entryY=0;entryDx=0;entryDy=0;endArrow=none;endFill=0;" edge="1" parent="1" source="H7TqJ4Lv6YYYcR_X0_IR-4" target="H7TqJ4Lv6YYYcR_X0_IR-3">
          <mxGeometry relative="1" as="geometry" />
        </mxCell>
        <mxCell id="H7TqJ4Lv6YYYcR_X0_IR-4" value="possui" style="rhombus;whiteSpace=wrap;html=1;" vertex="1" parent="1">
          <mxGeometry x="350" y="-2080" width="80" height="80" as="geometry" />
        </mxCell>
        <mxCell id="H7TqJ4Lv6YYYcR_X0_IR-16" value="" style="edgeStyle=orthogonalEdgeStyle;rounded=0;orthogonalLoop=1;jettySize=auto;html=1;endArrow=none;endFill=0;" edge="1" parent="1" source="H7TqJ4Lv6YYYcR_X0_IR-5" target="H7TqJ4Lv6YYYcR_X0_IR-6">
          <mxGeometry relative="1" as="geometry" />
        </mxCell>
        <mxCell id="H7TqJ4Lv6YYYcR_X0_IR-5" value="aluga" style="rhombus;whiteSpace=wrap;html=1;" vertex="1" parent="1">
          <mxGeometry x="350" y="-1950" width="80" height="80" as="geometry" />
        </mxCell>
        <mxCell id="H7TqJ4Lv6YYYcR_X0_IR-20" value="" style="edgeStyle=orthogonalEdgeStyle;rounded=0;orthogonalLoop=1;jettySize=auto;html=1;endArrow=none;endFill=0;" edge="1" parent="1" source="H7TqJ4Lv6YYYcR_X0_IR-6" target="H7TqJ4Lv6YYYcR_X0_IR-8">
          <mxGeometry relative="1" as="geometry" />
        </mxCell>
        <mxCell id="H7TqJ4Lv6YYYcR_X0_IR-21" style="edgeStyle=orthogonalEdgeStyle;rounded=0;orthogonalLoop=1;jettySize=auto;html=1;entryX=0;entryY=0.5;entryDx=0;entryDy=0;endArrow=none;endFill=0;" edge="1" parent="1" source="H7TqJ4Lv6YYYcR_X0_IR-6" target="H7TqJ4Lv6YYYcR_X0_IR-7">
          <mxGeometry relative="1" as="geometry" />
        </mxCell>
        <mxCell id="H7TqJ4Lv6YYYcR_X0_IR-6" value="Cliente" style="rounded=0;whiteSpace=wrap;html=1;" vertex="1" parent="1">
          <mxGeometry x="520" y="-1940" width="120" height="60" as="geometry" />
        </mxCell>
        <mxCell id="H7TqJ4Lv6YYYcR_X0_IR-7" value="CPF" style="ellipse;whiteSpace=wrap;html=1;" vertex="1" parent="1">
          <mxGeometry x="700" y="-1980" width="80" height="60" as="geometry" />
        </mxCell>
        <mxCell id="H7TqJ4Lv6YYYcR_X0_IR-8" value="Nome" style="ellipse;whiteSpace=wrap;html=1;" vertex="1" parent="1">
          <mxGeometry x="700" y="-1900" width="80" height="60" as="geometry" />
        </mxCell>
        <mxCell id="H7TqJ4Lv6YYYcR_X0_IR-9" value="Marca" style="ellipse;whiteSpace=wrap;html=1;" vertex="1" parent="1">
          <mxGeometry x="20" y="-1830" width="80" height="60" as="geometry" />
        </mxCell>
        <mxCell id="H7TqJ4Lv6YYYcR_X0_IR-10" value="Modelo" style="ellipse;whiteSpace=wrap;html=1;" vertex="1" parent="1">
          <mxGeometry x="140" y="-1830" width="80" height="60" as="geometry" />
        </mxCell>
        <mxCell id="H7TqJ4Lv6YYYcR_X0_IR-11" value="Placa" style="ellipse;whiteSpace=wrap;html=1;" vertex="1" parent="1">
          <mxGeometry x="250" y="-1830" width="80" height="60" as="geometry" />
        </mxCell>
        <mxCell id="H7TqJ4Lv6YYYcR_X0_IR-22" value="1" style="text;html=1;strokeColor=none;fillColor=none;align=center;verticalAlign=middle;whiteSpace=wrap;rounded=0;" vertex="1" parent="1">
          <mxGeometry x="390" y="-2140" width="30" height="30" as="geometry" />
        </mxCell>
        <mxCell id="H7TqJ4Lv6YYYcR_X0_IR-23" value="N" style="text;html=1;strokeColor=none;fillColor=none;align=center;verticalAlign=middle;whiteSpace=wrap;rounded=0;" vertex="1" parent="1">
          <mxGeometry x="580" y="-1970" width="30" height="30" as="geometry" />
        </mxCell>
        <mxCell id="H7TqJ4Lv6YYYcR_X0_IR-27" value="N" style="text;html=1;strokeColor=none;fillColor=none;align=center;verticalAlign=middle;whiteSpace=wrap;rounded=0;" vertex="1" parent="1">
          <mxGeometry x="180" y="-1970" width="30" height="30" as="geometry" />
        </mxCell>
        <mxCell id="H7TqJ4Lv6YYYcR_X0_IR-28" value="1" style="text;html=1;strokeColor=none;fillColor=none;align=center;verticalAlign=middle;whiteSpace=wrap;rounded=0;" vertex="1" parent="1">
          <mxGeometry x="490" y="-1940" width="30" height="30" as="geometry" />
        </mxCell>
        <mxCell id="H7TqJ4Lv6YYYcR_X0_IR-29" value="N" style="text;html=1;strokeColor=none;fillColor=none;align=center;verticalAlign=middle;whiteSpace=wrap;rounded=0;" vertex="1" parent="1">
          <mxGeometry x="240" y="-1940" width="30" height="30" as="geometry" />
        </mxCell>
      </root>
    </mxGraphModel>
  </diagram>
</mxfile>
